#define 7043_a03e50b898288b4fffccf54b618b5c4e71c9b1c28117fae00bd20bdef7fc52d8_width 24
#define 7043_a03e50b898288b4fffccf54b618b5c4e71c9b1c28117fae00bd20bdef7fc52d8_height 24
static char 7043_a03e50b898288b4fffccf54b618b5c4e71c9b1c28117fae00bd20bdef7fc52d8_bits[] = {
  0x00, 0x00, 0x60, 0x00, 0x00, 0xFE, 0x00, 0x80, 0x43, 0x00, 0xC0, 0x40, 
  0x00, 0x20, 0x40, 0x00, 0xB0, 0x63, 0x00, 0xC8, 0x22, 0x00, 0x4C, 0x26, 
  0x00, 0x46, 0x36, 0xA0, 0xC3, 0x13, 0xF8, 0x01, 0x0C, 0x8C, 0x00, 0x04, 
  0x4C, 0x00, 0x03, 0x7C, 0x80, 0x01, 0x30, 0xC0, 0x00, 0x30, 0x60, 0x00, 
  0x70, 0x70, 0x00, 0xD8, 0x2C, 0x00, 0x90, 0x67, 0x00, 0xEC, 0x27, 0x00, 
  0x42, 0x34, 0x00, 0x36, 0x1C, 0x00, 0x0E, 0x00, 0x00, 0x00, 0x00, 0x00, 
  };
