#define 3541_c82c26ee5a37d74b146e21bebb6d5901e4be925868c85732ebcbea1614163c1f_width 24
#define 3541_c82c26ee5a37d74b146e21bebb6d5901e4be925868c85732ebcbea1614163c1f_height 24
static char 3541_c82c26ee5a37d74b146e21bebb6d5901e4be925868c85732ebcbea1614163c1f_bits[] = {
  0x00, 0x00, 0x50, 0x00, 0x00, 0xBE, 0x00, 0x80, 0xC3, 0x00, 0xC0, 0x40, 
  0x00, 0x20, 0x40, 0x00, 0xB0, 0x43, 0x00, 0xC8, 0x66, 0x00, 0x4C, 0x24, 
  0x00, 0xC6, 0x36, 0xD0, 0x83, 0x13, 0xD8, 0x01, 0x0C, 0x8C, 0x00, 0x04, 
  0x4C, 0x00, 0x03, 0x7C, 0x80, 0x01, 0x30, 0xC0, 0x00, 0x30, 0x60, 0x00, 
  0x78, 0x30, 0x00, 0xD0, 0x6C, 0x00, 0xB8, 0x27, 0x00, 0xE6, 0x67, 0x00, 
  0xA2, 0x3C, 0x00, 0x12, 0x18, 0x00, 0x0E, 0x00, 0x00, 0x00, 0x00, 0x00, 
  };
