#define 19863_330dccfb75e5ad26b8e290d812a37317a7ac2130b0d803ea40a438c97da1f00f_width 24
#define 19863_330dccfb75e5ad26b8e290d812a37317a7ac2130b0d803ea40a438c97da1f00f_height 24
static char 19863_330dccfb75e5ad26b8e290d812a37317a7ac2130b0d803ea40a438c97da1f00f_bits[] = {
  0x00, 0x00, 0x60, 0x00, 0x00, 0xFE, 0x00, 0x80, 0x43, 0x00, 0xC0, 0x40, 
  0x00, 0x60, 0x40, 0x00, 0x90, 0x63, 0x00, 0xC8, 0x26, 0x00, 0x4C, 0x24, 
  0x00, 0x46, 0x36, 0xC0, 0x83, 0x13, 0xF8, 0x01, 0x0C, 0x8C, 0x00, 0x04, 
  0x4C, 0x00, 0x03, 0x7C, 0x80, 0x01, 0x30, 0xC0, 0x00, 0x30, 0x60, 0x00, 
  0x70, 0x30, 0x00, 0xD8, 0x6C, 0x00, 0x98, 0x27, 0x00, 0xE4, 0x67, 0x00, 
  0x54, 0x34, 0x00, 0x1C, 0x0C, 0x00, 0x00, 0x00, 0x00, 0x00, 0x00, 0x00, 
  };
