#define 29046_c8ddee335cc4dd5e59b0e627e6f640228e8fb45fb540d794a1e500a1637130d0_width 24
#define 29046_c8ddee335cc4dd5e59b0e627e6f640228e8fb45fb540d794a1e500a1637130d0_height 24
static char 29046_c8ddee335cc4dd5e59b0e627e6f640228e8fb45fb540d794a1e500a1637130d0_bits[] = {
  0x00, 0x00, 0x70, 0x00, 0x00, 0xDE, 0x00, 0x80, 0xC3, 0x00, 0xC0, 0x40, 
  0x00, 0x20, 0x40, 0x00, 0xB0, 0x43, 0x00, 0xD8, 0x66, 0x00, 0x4C, 0x24, 
  0x00, 0xC6, 0x36, 0xF0, 0x83, 0x1B, 0xD8, 0x01, 0x0C, 0x8C, 0x00, 0x04, 
  0xCC, 0x00, 0x03, 0x7C, 0x80, 0x01, 0x30, 0xC0, 0x00, 0x30, 0x60, 0x00, 
  0x70, 0x78, 0x00, 0xD8, 0x4C, 0x00, 0xB8, 0x67, 0x00, 0xE6, 0x67, 0x00, 
  0x82, 0x3C, 0x00, 0x33, 0x18, 0x00, 0x1F, 0x00, 0x00, 0x05, 0x00, 0x00, 
  };
