#define 31339_6a004bbf2a9bbd7109f830226555b1f0829707b95be160955f385ba0fd451301_width 24
#define 31339_6a004bbf2a9bbd7109f830226555b1f0829707b95be160955f385ba0fd451301_height 24
static char 31339_6a004bbf2a9bbd7109f830226555b1f0829707b95be160955f385ba0fd451301_bits[] = {
  0x00, 0x00, 0x60, 0x00, 0x00, 0xFE, 0x00, 0x80, 0x43, 0x00, 0xC0, 0x40, 
  0x00, 0x60, 0x40, 0x00, 0x90, 0x63, 0x00, 0xC8, 0x22, 0x00, 0x4C, 0x26, 
  0x00, 0x46, 0x36, 0xA0, 0xC3, 0x13, 0xF8, 0x01, 0x08, 0x8C, 0x00, 0x06, 
  0x4C, 0x00, 0x03, 0x7C, 0x80, 0x01, 0x30, 0xC0, 0x00, 0x30, 0x60, 0x00, 
  0x70, 0x70, 0x00, 0x58, 0x2C, 0x00, 0xB8, 0x27, 0x00, 0xE6, 0x67, 0x00, 
  0x43, 0x34, 0x00, 0x31, 0x1C, 0x00, 0x19, 0x00, 0x00, 0x0F, 0x00, 0x00, 
  };
