#define 24226_0d5696c37a922cd21f0a0b38bc590a4c3dff3cf8d40ef8364f53dcc58e0020e5_width 24
#define 24226_0d5696c37a922cd21f0a0b38bc590a4c3dff3cf8d40ef8364f53dcc58e0020e5_height 24
static char 24226_0d5696c37a922cd21f0a0b38bc590a4c3dff3cf8d40ef8364f53dcc58e0020e5_bits[] = {
  0x00, 0x00, 0x60, 0x00, 0x00, 0xFE, 0x00, 0x80, 0x43, 0x00, 0xC0, 0x40, 
  0x00, 0x20, 0x40, 0x00, 0xB0, 0x63, 0x00, 0xD8, 0x26, 0x00, 0x44, 0x24, 
  0x00, 0x46, 0x36, 0xC0, 0xC3, 0x13, 0xF8, 0x01, 0x0C, 0x8C, 0x00, 0x04, 
  0x4C, 0x00, 0x03, 0x7C, 0x80, 0x01, 0x30, 0xC0, 0x00, 0x30, 0x60, 0x00, 
  0x70, 0x30, 0x00, 0xD8, 0x6C, 0x00, 0x98, 0x67, 0x00, 0xE4, 0x27, 0x00, 
  0xD4, 0x34, 0x00, 0x1C, 0x1C, 0x00, 0x00, 0x00, 0x00, 0x00, 0x00, 0x00, 
  };
