#define 3576_9aa59c841440230087c3efe7c627440ebbc1babc83f5857f3c9c39240a531350_width 24
#define 3576_9aa59c841440230087c3efe7c627440ebbc1babc83f5857f3c9c39240a531350_height 24
static char 3576_9aa59c841440230087c3efe7c627440ebbc1babc83f5857f3c9c39240a531350_bits[] = {
  0x00, 0x00, 0x70, 0x00, 0x00, 0xDE, 0x00, 0x80, 0xC3, 0x00, 0xC0, 0x40, 
  0x00, 0x20, 0x40, 0x00, 0xB0, 0x43, 0x00, 0xD8, 0x66, 0x00, 0x4C, 0x24, 
  0x00, 0xC6, 0x36, 0xF0, 0x83, 0x13, 0xD8, 0x01, 0x0C, 0x8C, 0x00, 0x06, 
  0xCC, 0x00, 0x03, 0x78, 0x80, 0x01, 0x30, 0xC0, 0x00, 0x30, 0x60, 0x00, 
  0x70, 0x78, 0x00, 0xD0, 0x4C, 0x00, 0xBC, 0x67, 0x00, 0xE6, 0x67, 0x00, 
  0x83, 0x3C, 0x00, 0x31, 0x18, 0x00, 0x19, 0x00, 0x00, 0x0F, 0x00, 0x00, 
  };
