#define 19656_c76deff27de39147a1cf8250574d913a1452a6bb030171332e33479ef3e70533_width 24
#define 19656_c76deff27de39147a1cf8250574d913a1452a6bb030171332e33479ef3e70533_height 24
static char 19656_c76deff27de39147a1cf8250574d913a1452a6bb030171332e33479ef3e70533_bits[] = {
  0x00, 0x00, 0x60, 0x00, 0x00, 0x7E, 0x00, 0x80, 0xC3, 0x00, 0xC0, 0x40, 
  0x00, 0x20, 0x40, 0x00, 0xB0, 0x43, 0x00, 0xC8, 0x66, 0x00, 0x4C, 0x24, 
  0x00, 0x46, 0x36, 0xD0, 0x83, 0x13, 0xD8, 0x01, 0x0C, 0x8C, 0x00, 0x04, 
  0x4C, 0x00, 0x03, 0x7C, 0x80, 0x01, 0x30, 0xC0, 0x00, 0x30, 0x60, 0x00, 
  0x70, 0x30, 0x00, 0xD8, 0x6C, 0x00, 0xB0, 0x67, 0x00, 0xEC, 0x27, 0x00, 
  0xA6, 0x34, 0x00, 0x1C, 0x1C, 0x00, 0x08, 0x00, 0x00, 0x00, 0x00, 0x00, 
  };
